<svg xmlns="http://www.w3.org/2000/svg" width="240" height="72" viewBox="0 0 240 72" role="img" aria-label="CD Club logo">
  <defs>
    <linearGradient id="g" x1="0" x2="1" y1="0" y2="1"><stop offset="0" stop-color="#ff864f"/><stop offset="1" stop-color="#ff4f1d"/></linearGradient>
  </defs>
  <rect width="240" height="72" rx="18" fill="#101214"/>
  <circle cx="42" cy="36" r="25" fill="none" stroke="url(#g)" stroke-width="4"/>
  <path d="M34 24h10c8 0 13 5 13 12s-5 12-13 12H34V24zm7 6v12h3c4 0 6-2 6-6s-2-6-6-6h-3z" fill="#fff"/>
  <path d="M29 24c-9 1-15 7-15 12s6 11 15 12v-7c-5-.6-8-2.6-8-5s3-4.4 8-5v-7z" fill="#ff6a2d"/>
  <text x="78" y="31" font-family="Oswald,Arial,sans-serif" font-weight="700" font-size="22" fill="#fff" letter-spacing="2">CD CLUB</text>
  <text x="78" y="50" font-family="Inter,Arial,sans-serif" font-weight="700" font-size="10" fill="#b9b0a8" letter-spacing="2">CIVIL DEFENSE CLUB</text>
</svg>