<svg xmlns="http://www.w3.org/2000/svg" viewBox="0 0 788 710" width="788" height="710" role="img" aria-label="Civil Defense Club logo">
  <title>Civil Defense Club</title>
  <path d="M 485 659 L 485 660 L 484 661 L 484 662 L 493 662 L 494 661 L 495 661 L 496 660 L 500 660 L 502 662 L 502 664 L 501 665 L 500 665 L 499 666 L 497 666 L 497 667 L 496 668 L 497 668 L 498 669 L 501 669 L 502 670 L 502 672 L 500 674 L 495 674 L 493 672 L 484 672 L 484 674 L 487 677 L 488 677 L 489 678 L 490 678 L 491 679 L 505 679 L 506 678 L 508 678 L 512 674 L 512 670 L 509 667 L 512 664 L 512 660 L 509 657 L 508 657 L 507 656 L 505 656 L 504 655 L 492 655 L 491 656 L 489 656 L 488 657 L 487 657 Z M 452 659 L 452 660 L 451 661 L 451 662 L 461 662 L 463 660 L 467 660 L 470 663 L 468 665 L 466 665 L 465 666 L 461 666 L 460 667 L 457 667 L 456 668 L 454 668 L 451 671 L 451 679 L 478 679 L 478 674 L 462 674 L 461 673 L 463 671 L 468 671 L 469 670 L 473 670 L 474 669 L 475 669 L 476 668 L 477 668 L 479 666 L 479 661 L 478 660 L 478 659 L 476 657 L 475 657 L 474 656 L 472 656 L 471 655 L 459 655 L 458 656 L 456 656 L 455 657 L 454 657 Z M 419 660 L 419 661 L 418 662 L 418 672 L 419 673 L 419 674 L 423 678 L 425 678 L 426 679 L 438 679 L 439 678 L 440 678 L 441 677 L 442 677 L 445 674 L 445 673 L 446 672 L 446 662 L 445 661 L 445 660 L 442 657 L 441 657 L 440 656 L 438 656 L 437 655 L 427 655 L 426 656 L 424 656 L 423 657 L 422 657 Z M 431 660 L 434 660 L 437 663 L 437 671 L 434 674 L 430 674 L 427 671 L 427 663 L 429 661 L 430 661 Z M 386 659 L 386 660 L 385 661 L 385 662 L 395 662 L 397 660 L 401 660 L 404 663 L 402 665 L 400 665 L 399 666 L 395 666 L 394 667 L 391 667 L 390 668 L 389 668 L 388 669 L 387 669 L 385 671 L 385 679 L 413 679 L 413 674 L 396 674 L 395 673 L 397 671 L 402 671 L 403 670 L 407 670 L 408 669 L 410 669 L 413 666 L 413 665 L 414 664 L 413 663 L 413 660 L 410 657 L 409 657 L 408 656 L 406 656 L 405 655 L 393 655 L 392 656 L 390 656 L 388 658 L 387 658 Z M 344 655 L 344 660 L 352 660 L 353 661 L 353 676 L 354 677 L 353 678 L 353 679 L 362 679 L 362 678 L 363 677 L 362 676 L 362 667 L 363 666 L 362 665 L 363 664 L 362 663 L 362 662 L 364 660 L 372 660 L 372 655 Z M 312 660 L 312 661 L 311 662 L 311 665 L 314 668 L 316 668 L 317 669 L 324 669 L 325 670 L 329 670 L 330 671 L 330 672 L 329 673 L 328 673 L 327 674 L 324 674 L 323 673 L 322 673 L 321 672 L 311 672 L 312 673 L 312 674 L 313 675 L 313 676 L 314 676 L 316 678 L 318 678 L 319 679 L 332 679 L 333 678 L 335 678 L 337 676 L 338 676 L 338 675 L 339 674 L 339 673 L 340 672 L 340 669 L 337 666 L 334 666 L 333 665 L 326 665 L 325 664 L 322 664 L 321 663 L 321 662 L 322 661 L 323 661 L 324 660 L 327 660 L 328 661 L 329 661 L 330 662 L 340 662 L 339 661 L 339 660 L 336 657 L 335 657 L 334 656 L 333 656 L 332 655 L 319 655 L 318 656 L 316 656 Z M 278 656 L 279 657 L 278 658 L 278 677 L 279 678 L 279 679 L 307 679 L 307 674 L 289 674 L 287 672 L 287 671 L 289 669 L 303 669 L 303 665 L 289 665 L 287 663 L 287 662 L 289 660 L 306 660 L 306 655 L 279 655 Z M 97 516 L 97 518 L 99 522 L 101 524 L 111 541 L 115 541 L 120 544 L 126 551 L 129 558 L 129 566 L 127 570 L 120 577 L 115 579 L 108 579 L 103 577 L 96 570 L 93 564 L 93 562 L 92 561 L 92 554 L 94 550 L 92 548 L 91 545 L 89 543 L 80 527 L 77 529 L 72 539 L 72 544 L 71 545 L 71 548 L 72 549 L 72 556 L 73 557 L 75 565 L 81 577 L 90 590 L 96 596 L 103 601 L 105 601 L 111 604 L 123 604 L 135 599 L 139 596 L 146 588 L 148 584 L 149 577 L 150 576 L 150 569 L 149 568 L 148 560 L 145 554 L 145 552 L 138 539 L 134 533 L 123 522 L 111 516 Z M 675 502 L 672 508 L 670 510 L 668 515 L 666 517 L 664 522 L 662 524 L 660 529 L 658 531 L 656 536 L 651 543 L 640 565 L 640 567 L 638 571 L 638 574 L 637 575 L 637 584 L 639 588 L 642 591 L 643 591 L 647 594 L 653 594 L 657 592 L 659 590 L 660 590 L 663 587 L 664 588 L 664 594 L 665 595 L 665 597 L 668 601 L 669 601 L 671 603 L 673 603 L 677 605 L 682 605 L 683 604 L 687 603 L 697 593 L 697 592 L 705 581 L 707 576 L 709 574 L 714 564 L 716 562 L 718 557 L 720 555 L 722 550 L 724 548 L 726 543 L 728 541 L 731 534 L 730 534 L 723 529 L 709 522 L 702 517 L 695 514 L 693 512 L 690 511 L 688 509 L 683 507 L 681 505 Z M 695 544 L 696 545 L 697 545 L 698 546 L 699 546 L 701 548 L 702 548 L 703 549 L 704 549 L 705 550 L 704 551 L 704 552 L 703 553 L 703 554 L 702 555 L 702 556 L 700 558 L 700 559 L 699 560 L 699 561 L 698 562 L 698 563 L 696 565 L 696 566 L 695 567 L 695 568 L 693 570 L 693 571 L 691 573 L 691 574 L 688 577 L 687 577 L 686 578 L 684 578 L 683 577 L 682 577 L 680 575 L 680 570 L 681 569 L 681 567 L 682 566 L 682 565 L 683 564 L 683 563 L 684 562 L 684 561 L 686 559 L 686 558 L 687 557 L 687 556 L 689 554 L 689 553 L 690 552 L 690 551 L 691 550 L 691 549 L 693 547 L 693 546 Z M 676 533 L 677 534 L 678 534 L 679 535 L 680 535 L 682 537 L 683 537 L 685 539 L 685 540 L 684 541 L 684 542 L 683 543 L 683 544 L 681 546 L 681 547 L 680 548 L 680 549 L 679 550 L 679 551 L 677 553 L 677 554 L 676 555 L 676 556 L 674 558 L 674 559 L 673 560 L 673 561 L 671 563 L 671 564 L 667 568 L 666 568 L 665 569 L 664 569 L 663 568 L 662 568 L 659 565 L 659 562 L 660 561 L 660 559 L 661 558 L 661 557 L 662 556 L 662 555 L 663 554 L 663 553 L 664 552 L 664 551 L 665 550 L 665 549 L 667 547 L 667 546 L 668 545 L 668 544 L 669 543 L 669 542 L 671 540 L 671 539 L 672 538 L 672 537 L 673 536 L 673 535 L 675 533 Z M 108 472 L 107 473 L 105 473 L 104 474 L 102 474 L 101 475 L 99 475 L 98 476 L 96 476 L 95 477 L 93 477 L 92 478 L 90 478 L 89 479 L 87 479 L 86 480 L 84 480 L 83 481 L 81 481 L 80 482 L 78 482 L 77 483 L 74 483 L 73 484 L 71 484 L 70 485 L 68 485 L 67 486 L 65 486 L 64 487 L 62 487 L 61 488 L 59 488 L 58 489 L 56 489 L 55 490 L 53 490 L 52 491 L 50 491 L 49 492 L 47 492 L 47 495 L 48 496 L 48 498 L 49 499 L 49 502 L 50 503 L 50 505 L 51 506 L 51 508 L 52 509 L 52 511 L 53 512 L 53 514 L 54 515 L 54 517 L 57 517 L 58 516 L 61 516 L 62 515 L 64 515 L 65 514 L 67 514 L 68 513 L 70 513 L 71 512 L 73 512 L 74 511 L 76 511 L 77 510 L 79 510 L 80 509 L 82 509 L 83 508 L 85 508 L 86 507 L 88 507 L 89 506 L 92 506 L 93 505 L 95 505 L 96 504 L 98 504 L 99 503 L 101 503 L 102 502 L 104 502 L 105 501 L 107 501 L 108 500 L 110 500 L 111 499 L 113 499 L 114 498 L 116 498 L 116 495 L 115 494 L 115 492 L 114 491 L 114 489 L 113 488 L 113 486 L 112 485 L 112 483 L 111 482 L 111 480 L 110 479 L 110 477 L 109 476 L 109 474 L 108 473 Z M 705 423 L 698 427 L 690 437 L 690 439 L 687 444 L 687 446 L 685 450 L 685 453 L 683 458 L 683 463 L 682 464 L 682 481 L 683 482 L 684 488 L 686 492 L 693 499 L 701 503 L 707 504 L 708 505 L 712 505 L 717 507 L 726 508 L 731 510 L 740 511 L 740 508 L 741 507 L 741 503 L 743 498 L 743 494 L 744 493 L 745 486 L 740 484 L 736 484 L 735 483 L 731 483 L 730 482 L 722 481 L 717 479 L 713 479 L 704 475 L 700 470 L 700 468 L 699 467 L 699 462 L 700 461 L 700 458 L 702 454 L 709 448 L 719 448 L 720 449 L 724 449 L 725 450 L 728 450 L 733 452 L 737 452 L 738 453 L 742 453 L 743 454 L 751 455 L 752 456 L 752 453 L 754 448 L 754 444 L 756 439 L 756 435 L 757 434 L 757 430 L 756 429 L 752 429 L 747 427 L 743 427 L 742 426 L 738 426 L 733 424 L 729 424 L 724 422 L 709 422 L 708 423 Z M 30 378 L 30 387 L 31 388 L 31 398 L 32 399 L 32 405 L 34 405 L 35 406 L 40 407 L 43 409 L 45 409 L 46 410 L 48 410 L 49 411 L 60 414 L 63 416 L 65 416 L 66 417 L 77 420 L 81 423 L 75 426 L 73 428 L 70 429 L 68 431 L 63 433 L 56 438 L 51 440 L 49 442 L 46 443 L 39 448 L 36 449 L 37 451 L 37 461 L 38 462 L 38 472 L 39 473 L 39 476 L 42 473 L 52 467 L 55 464 L 65 458 L 68 455 L 69 455 L 71 453 L 81 447 L 84 444 L 94 438 L 97 435 L 98 435 L 100 433 L 100 429 L 99 428 L 99 418 L 98 417 L 98 409 L 97 408 L 89 404 L 87 404 L 80 400 L 78 400 L 73 397 L 71 397 L 64 393 L 62 393 L 55 389 L 53 389 L 46 385 L 44 385 L 37 381 L 35 381 Z M 754 336 L 749 336 L 748 337 L 733 337 L 732 338 L 716 338 L 715 339 L 699 339 L 698 340 L 689 340 L 690 341 L 690 357 L 691 358 L 691 375 L 692 376 L 692 391 L 693 392 L 693 408 L 694 409 L 694 416 L 700 416 L 701 415 L 709 415 L 709 409 L 708 408 L 708 392 L 707 391 L 707 375 L 706 374 L 706 367 L 708 365 L 722 365 L 723 364 L 740 364 L 741 363 L 756 363 L 756 358 L 755 357 L 755 342 L 754 341 Z M 37 334 L 37 340 L 36 341 L 36 348 L 35 349 L 35 356 L 34 357 L 34 360 L 36 360 L 37 361 L 44 361 L 45 362 L 52 362 L 53 363 L 60 363 L 61 364 L 68 364 L 69 365 L 75 365 L 76 366 L 83 366 L 84 367 L 91 367 L 92 368 L 98 368 L 98 367 L 99 366 L 99 360 L 100 359 L 100 352 L 101 351 L 101 344 L 102 343 L 102 342 L 97 342 L 96 341 L 89 341 L 88 340 L 81 340 L 80 339 L 73 339 L 72 338 L 65 338 L 64 337 L 58 337 L 57 336 L 50 336 L 49 335 L 42 335 L 41 334 Z M 126 259 L 124 259 L 123 258 L 121 258 L 120 257 L 118 257 L 114 255 L 112 255 L 111 256 L 111 258 L 110 259 L 110 261 L 109 262 L 109 264 L 108 265 L 108 267 L 107 268 L 107 270 L 106 271 L 106 273 L 105 274 L 105 276 L 104 277 L 104 279 L 103 280 L 103 282 L 102 283 L 102 285 L 101 286 L 101 288 L 100 289 L 100 291 L 99 292 L 99 294 L 98 295 L 98 297 L 96 301 L 94 301 L 93 300 L 91 300 L 90 299 L 88 299 L 87 298 L 85 298 L 84 297 L 82 297 L 81 296 L 79 296 L 78 295 L 76 295 L 75 294 L 73 294 L 72 293 L 70 293 L 69 292 L 67 292 L 66 291 L 64 291 L 63 290 L 61 290 L 60 289 L 58 289 L 57 288 L 55 288 L 54 287 L 49 286 L 48 287 L 48 289 L 47 290 L 47 292 L 46 293 L 46 295 L 45 296 L 45 298 L 44 299 L 44 301 L 43 302 L 43 304 L 41 308 L 41 311 L 43 312 L 45 312 L 46 313 L 48 313 L 49 314 L 51 314 L 52 315 L 54 315 L 55 316 L 57 316 L 58 317 L 60 317 L 61 318 L 63 318 L 64 319 L 66 319 L 67 320 L 69 320 L 70 321 L 72 321 L 73 322 L 75 322 L 76 323 L 78 323 L 79 324 L 81 324 L 82 325 L 84 325 L 85 326 L 87 326 L 88 327 L 90 327 L 91 328 L 93 328 L 94 329 L 96 329 L 97 330 L 99 330 L 100 331 L 102 331 L 103 329 L 103 327 L 104 326 L 104 324 L 105 323 L 105 321 L 106 320 L 106 318 L 107 317 L 107 315 L 108 314 L 108 312 L 110 309 L 110 307 L 111 306 L 111 304 L 112 303 L 112 301 L 113 300 L 113 298 L 114 297 L 114 295 L 115 294 L 115 292 L 116 291 L 116 289 L 117 288 L 117 286 L 118 285 L 118 283 L 119 282 L 119 280 L 120 279 L 120 277 L 121 276 L 121 274 L 122 273 L 122 271 L 123 270 L 123 268 L 124 267 L 124 265 L 125 264 Z M 696 237 L 695 238 L 689 239 L 681 243 L 672 253 L 669 261 L 669 278 L 670 279 L 671 287 L 672 288 L 674 296 L 676 299 L 676 301 L 682 312 L 686 316 L 686 317 L 693 323 L 699 326 L 702 326 L 703 327 L 711 327 L 702 301 L 697 299 L 691 293 L 689 289 L 688 283 L 687 282 L 687 277 L 691 269 L 696 265 L 701 263 L 710 263 L 714 265 L 719 270 L 723 279 L 723 289 L 720 295 L 723 301 L 729 320 L 731 320 L 736 315 L 740 308 L 741 302 L 742 301 L 742 288 L 741 287 L 741 282 L 740 281 L 740 278 L 739 277 L 737 269 L 731 256 L 727 250 L 719 242 L 714 239 L 712 239 L 708 237 Z M 149 452 L 154 473 L 192 503 L 198 480 L 206 482 L 209 464 L 223 449 L 216 438 L 252 395 L 259 401 L 277 398 L 288 445 L 311 432 L 299 398 L 323 373 L 367 400 L 383 373 L 350 353 L 327 319 L 343 315 L 393 262 L 395 253 L 442 307 L 473 331 L 444 350 L 398 353 L 396 384 L 446 382 L 490 359 L 485 368 L 492 367 L 494 378 L 514 391 L 502 426 L 507 437 L 523 436 L 528 416 L 541 398 L 599 506 L 637 478 L 560 388 L 558 367 L 485 301 L 491 295 L 467 276 L 462 279 L 411 235 L 409 228 L 460 176 L 455 168 L 400 223 L 380 204 L 375 217 L 349 196 L 357 175 L 353 169 L 336 184 L 328 180 L 328 193 L 373 235 L 318 289 L 312 303 L 295 293 L 238 340 L 235 350 L 243 376 L 173 449 Z M 294 380 L 295 379 L 295 378 L 296 377 L 298 379 L 299 379 L 301 381 L 304 381 L 305 382 L 307 382 L 308 383 L 304 387 L 297 387 L 294 384 Z M 313 365 L 315 367 L 315 369 L 316 370 L 316 371 L 317 372 L 317 374 L 308 383 L 306 381 L 303 381 L 302 380 L 301 380 L 300 379 L 300 378 L 298 376 L 298 375 L 299 374 L 299 373 L 305 367 L 306 367 L 308 365 Z M 504 363 L 506 363 L 514 371 L 514 375 L 511 378 L 510 378 L 509 379 L 504 379 L 503 378 L 502 378 L 504 380 L 505 380 L 506 381 L 509 381 L 510 380 L 512 380 L 515 377 L 516 377 L 517 378 L 520 378 L 521 379 L 521 380 L 511 390 L 508 390 L 504 386 L 503 386 L 494 377 L 494 374 L 499 369 L 499 368 Z M 301 296 L 303 298 L 303 300 L 302 301 L 302 302 L 293 311 L 293 312 L 292 313 L 291 313 L 288 316 L 288 317 L 284 321 L 283 321 L 280 324 L 280 325 L 276 329 L 275 329 L 262 342 L 261 342 L 260 343 L 257 343 L 255 341 L 255 337 L 296 296 Z M 434 269 L 435 268 L 436 268 L 437 269 L 438 269 L 446 277 L 446 279 L 445 280 L 444 279 L 443 279 L 441 277 L 440 277 L 435 272 L 435 271 L 434 270 Z M 418 255 L 419 254 L 421 254 L 423 256 L 424 256 L 430 262 L 430 264 L 429 265 L 428 265 L 427 264 L 426 264 L 419 257 L 419 256 Z M 397 253 L 399 251 L 400 251 L 403 254 L 403 255 L 405 257 L 404 258 L 403 258 L 402 257 L 401 257 Z M 402 238 L 409 245 L 409 247 L 407 249 L 400 242 L 400 241 L 401 240 L 401 239 Z M 338 200 L 339 199 L 340 199 L 342 201 L 343 201 L 344 200 L 353 209 L 354 209 L 366 221 L 364 223 L 363 223 L 357 217 L 356 217 L 346 207 L 345 207 Z M 344 179 L 346 179 L 350 183 L 350 185 L 349 186 L 349 188 L 347 190 L 346 190 L 340 184 L 340 183 Z M 159 137 L 154 137 L 153 136 L 152 137 L 147 137 L 146 138 L 144 138 L 136 142 L 133 145 L 132 145 L 115 162 L 115 163 L 111 167 L 111 168 L 106 173 L 106 174 L 101 179 L 101 180 L 96 185 L 96 186 L 87 196 L 92 201 L 93 201 L 98 206 L 99 206 L 104 211 L 105 211 L 110 216 L 111 216 L 115 220 L 116 220 L 122 226 L 123 226 L 137 238 L 172 196 L 172 195 L 176 190 L 182 178 L 182 176 L 183 175 L 183 172 L 184 171 L 184 161 L 183 160 L 183 158 L 181 154 L 170 143 L 169 143 L 164 139 L 162 138 L 160 138 Z M 148 162 L 149 163 L 150 163 L 151 164 L 152 164 L 160 172 L 160 174 L 161 175 L 161 181 L 160 182 L 160 184 L 159 185 L 159 186 L 158 187 L 158 188 L 157 189 L 157 190 L 154 193 L 154 194 L 150 198 L 150 199 L 146 203 L 146 204 L 143 207 L 142 207 L 141 206 L 140 206 L 136 202 L 135 202 L 130 197 L 129 197 L 125 193 L 124 193 L 119 188 L 118 188 L 116 186 L 116 185 L 120 181 L 120 180 L 124 176 L 124 175 L 133 166 L 134 166 L 136 164 L 137 164 L 138 163 L 139 163 L 140 162 Z M 646 129 L 603 165 L 597 172 L 648 231 L 659 221 L 627 184 L 626 181 L 634 174 L 660 205 L 661 205 L 669 197 L 643 167 L 650 160 L 652 160 L 683 196 L 694 185 Z M 561 81 L 554 85 L 550 89 L 548 95 L 549 101 L 554 109 L 566 120 L 575 126 L 581 132 L 581 134 L 579 136 L 573 136 L 569 134 L 563 128 L 562 123 L 541 109 L 538 108 L 538 111 L 537 112 L 537 121 L 539 127 L 541 129 L 542 132 L 553 143 L 565 151 L 579 157 L 584 157 L 585 158 L 594 157 L 602 153 L 606 149 L 608 144 L 607 137 L 604 131 L 591 118 L 581 111 L 575 105 L 575 103 L 576 102 L 584 102 L 592 108 L 594 114 L 596 116 L 617 130 L 618 130 L 618 127 L 619 126 L 619 116 L 615 107 L 606 97 L 590 86 L 584 83 L 574 80 L 565 80 L 564 81 Z M 229 69 L 226 70 L 206 84 L 203 85 L 169 108 L 166 109 L 167 112 L 201 164 L 230 146 L 267 121 L 261 111 L 258 109 L 217 136 L 214 135 L 210 129 L 210 127 L 242 106 L 243 104 L 237 95 L 204 117 L 200 114 L 197 108 L 200 105 L 220 93 L 237 81 Z M 324 36 L 321 36 L 308 41 L 305 41 L 304 42 L 302 42 L 289 47 L 286 47 L 285 48 L 283 48 L 273 52 L 270 52 L 269 53 L 267 53 L 266 54 L 264 54 L 263 55 L 253 58 L 254 64 L 259 77 L 259 80 L 264 93 L 264 96 L 265 97 L 265 99 L 266 100 L 272 120 L 297 112 L 297 110 L 293 100 L 293 97 L 290 90 L 290 87 L 291 86 L 301 83 L 302 82 L 305 82 L 318 77 L 321 77 L 328 74 L 325 63 L 324 64 L 322 64 L 318 66 L 315 66 L 302 71 L 299 71 L 289 75 L 286 75 L 285 74 L 285 72 L 283 68 L 283 65 L 286 63 L 288 63 L 295 60 L 298 60 L 299 59 L 301 59 L 311 55 L 314 55 L 315 54 L 317 54 L 318 53 L 328 50 L 328 47 L 327 46 Z M 449 32 L 431 94 L 456 101 L 469 59 L 474 67 L 474 69 L 485 92 L 485 94 L 493 112 L 524 121 L 542 58 L 539 58 L 517 51 L 508 80 L 508 83 L 504 93 L 500 87 L 500 85 L 492 69 L 492 67 L 480 40 L 463 36 L 456 33 Z M 421 30 L 393 30 L 392 31 L 346 32 L 346 37 L 347 38 L 348 97 L 358 97 L 359 96 L 390 96 L 391 95 L 423 95 L 424 94 L 427 94 L 426 79 L 423 80 L 391 80 L 390 81 L 375 81 L 374 80 L 374 70 L 375 69 L 415 68 L 415 61 L 414 60 L 414 57 L 375 58 L 373 56 L 373 47 L 374 46 L 393 46 L 394 45 L 421 45 Z" fill="#ffffff" fill-rule="evenodd"/>
</svg>